<?xml version='1.0' encoding='utf-8'?>
<!-- Generator: imaengine 6.0   -->
<svg xmlns:xlink="http://www.w3.org/1999/xlink" xmlns="http://www.w3.org/2000/svg" viewBox="0,0,419,80" style="enable-background:new 0 0 419 80;" version="1.1">
<defs/>
<g id="layer0">
<g>
<path d="M102.2,33C105.5,33 108.1,31.7 110.2,29.1L114.5,33.5C111.1,37.3 107.2,39.2 102.6,39.2C98,39.2 94.3,37.8 91.3,34.9C88.3,32 86.9,28.4 86.9,24C86.9,19.6 88.4,15.9 91.4,13C94.4,10.1 98.1,8.6 102.5,8.6C107.4,8.6 111.5,10.5 114.7,14.2L110.6,18.9C108.5,16.3 105.9,15 102.8,15C100.3,15 98.2,15.8 96.4,17.4C94.6,19 93.7,21.2 93.7,24C93.7,26.8 94.5,29 96.2,30.7C97.8,32.1 99.8,33 102.2,33L102.2,33Z" fill="#FFFFFF"/>
<path d="M119.7,38.8L119.7,9.1L126.3,9.1L126.3,32.9L139,32.9L139,38.8L119.7,38.8L119.7,38.8Z" fill="#FFFFFF"/>
<path d="M168,34.7C165,37.6 161.3,39.1 156.9,39.1C152.5,39.1 148.8,37.6 145.8,34.7C142.8,31.8 141.3,28.1 141.3,23.8C141.3,19.4 142.8,15.8 145.8,12.9C148.8,10 152.5,8.5 156.9,8.5C161.3,8.5 165,10 168,12.9C171,15.8 172.5,19.5 172.5,23.8C172.5,28.2 171,31.8 168,34.7L168,34.7ZM165.7,23.8C165.7,21.2 164.8,18.9 163.1,17C161.4,15.1 159.3,14.2 156.8,14.2C154.3,14.2 152.2,15.1 150.5,17C148.8,18.9 147.9,21.1 147.9,23.8C147.9,26.4 148.8,28.7 150.5,30.6C152.2,32.5 154.3,33.4 156.8,33.4C159.3,33.4 161.4,32.5 163.1,30.6C164.9,28.7 165.7,26.5 165.7,23.8L165.7,23.8Z" fill="#FFFFFF"/>
<path d="M186,31.2C187.1,32.6 188.6,33.3 190.5,33.3C192.4,33.3 193.9,32.6 194.9,31.2C196,29.8 196.5,27.9 196.5,25.6L196.5,9.2L203.1,9.2L203.1,25.8C203.1,30.1 201.9,33.4 199.5,35.7C197.1,38 194.1,39.2 190.4,39.2C186.7,39.2 183.6,38 181.2,35.7C178.8,33.4 177.6,30.1 177.6,25.8L177.6,9.2L184.2,9.2L184.2,25.6C184.3,27.9 184.9,29.8 186,31.2L186,31.2Z" fill="#FFFFFF"/>
<path d="M232.7,13C235.5,15.6 237,19.2 237,23.8C237,28.4 235.6,32.1 232.9,34.8C230.1,37.5 225.9,38.8 220.3,38.8L210,38.8L210,9.1L220.5,9.1C225.8,9.1 229.9,10.4 232.7,13L232.7,13ZM227.9,30.7C229.5,29.2 230.3,26.9 230.3,24C230.3,21.1 229.5,18.8 227.9,17.3C226.3,15.7 223.8,14.9 220.4,14.9L216.7,14.9L216.7,33L220.9,33C223.9,33 226.2,32.2 227.9,30.7L227.9,30.7Z" fill="#FFFFFF"/>
<path d="M274.7,9.1L281.3,9.1L281.3,38.8L274.7,38.8L260.5,20.2L260.5,38.8L253.9,38.8L253.9,9.1L260.1,9.1L274.7,28.2L274.7,9.1L274.7,9.1Z" fill="#FFFFFF"/>
<path d="M309.8,38.8L307,32.4L294.5,32.4L291.7,38.8L284.6,38.8L297.4,9.1L303.8,9.1L316.6,38.8L309.8,38.8L309.8,38.8ZM300.9,18L297.2,26.6L304.6,26.6L300.9,18L300.9,18Z" fill="#FFFFFF"/>
<path d="M330.8,14.9L330.8,38.9L324.2,38.9L324.2,14.9L315.8,14.9L315.8,9.2L339.3,9.2L339.3,14.9L330.8,14.9L330.8,14.9Z" fill="#FFFFFF"/>
<path d="M344,9.1L350.6,9.1L350.6,38.8L344,38.8L344,9.1L344,9.1Z" fill="#FFFFFF"/>
<path d="M368.9,28L376.5,9.1L383.7,9.1L371.8,38.8L366.2,38.8L354.3,9.1L361.5,9.1L368.9,28L368.9,28Z" fill="#FFFFFF"/>
<path d="M408.6,9.1L408.6,15L393.8,15L393.8,21.1L407.1,21.1L407.1,26.8L393.8,26.8L393.8,33L409.1,33L409.1,38.9L387.2,38.9L387.2,9.2L408.6,9.2L408.6,9.1L408.6,9.1Z" fill="#FFFFFF"/>
</g>
</g>
<g id="layer1">
<g>
<path d="M15.5,47.7L6.4,47.7L6.4,69.1L27.7,69.1L27.7,59.9L15.5,59.9L15.5,47.7Z" fill="#FFFFFF"/>
<path d="M61.3,47.8L61.3,59.9L49.1,59.9L49.1,59.8L49.1,69.1L70.4,69.1L70.4,47.7L61.2,47.7L61.3,47.8Z" fill="#FFFFFF"/>
<path d="M6.4,26.4L15.6,26.4L15.5,26.3L15.5,14.2L27.7,14.2L27.7,5L6.4,5L6.4,26.4Z" fill="#FFFFFF"/>
<path d="M49.1,5L49.1,14.2L61.3,14.2L61.3,26.4L70.4,26.4L70.4,5L49.1,5Z" fill="#FFFFFF"/>
</g>
<g>
<path d="M42.8587,21.3587L35.7,14.2L49.1,14.2L49.1,5L27.7,5L27.7,14.2L34.8587,21.3587L42.8587,21.3587Z" fill="#FFFFFF" fill-opacity="0.5"/>
<path d="M41.441,52.241L33.441,52.241L39,57.8L41,59.9L27.7,59.9L27.7,69.1L49.1,69.1L49.1,59.8L43,53.8L41.441,52.241Z" fill="#FFFFFF" fill-opacity="0.5"/>
<path d="M61.3,26.4L61.3,39.7L59.2,37.6L53.6543,32.0543L53.6543,40.1543L55.1,41.6L61.2,47.7L70.4,47.7L70.4,26.4L61.3,26.4Z" fill="#FFFFFF" fill-opacity="0.5"/>
<path d="M23.6745,34.4745L15.6,26.4L6.4,26.4L6.4,47.7L15.5,47.7L15.5,34.4L23.6745,42.5745L23.6745,34.4745Z" fill="#FFFFFF" fill-opacity="0.5"/>
</g>
</g>
<g id="layer2">
<g>
<path d="M90.2704,62.5479L90.2704,45.3682L99.1181,45.3682C100.759,45.3682 102.013,45.5088 102.88,45.7901C103.747,46.0713 104.446,46.5928 104.977,47.3545C105.509,48.1163 105.774,49.044 105.774,50.1377C105.774,51.0909 105.571,51.9131 105.165,52.6045C104.759,53.2959 104.2,53.8565 103.489,54.2862C103.036,54.5596 102.415,54.7862 101.626,54.9659C102.259,55.1768 102.72,55.3877 103.009,55.5987C103.204,55.7393 103.487,56.0401 103.858,56.501C104.229,56.962 104.477,57.3174 104.602,57.5674L107.169,62.5479L101.169,62.5479L98.3329,57.2979C97.9735,56.6182 97.6532,56.1768 97.372,55.9737C96.9892,55.7081 96.5556,55.5752 96.0712,55.5752L95.6024,55.5752L95.6024,62.5479L90.2704,62.5479ZM95.6024,52.3292L97.8407,52.3292C98.0829,52.3292 98.5517,52.251 99.247,52.0948C99.5985,52.0245 99.8856,51.8448 100.108,51.5557C100.331,51.2667 100.442,50.9346 100.442,50.5596C100.442,50.0049 100.267,49.5792 99.9149,49.2823C99.5634,48.9854 98.9032,48.837 97.9345,48.837L95.6024,48.837L95.6024,52.3292Z" fill="#FFFFFF"/>
<path d="M120.856,45.3682L135.083,45.3682L135.083,49.0362L126.177,49.0362L126.177,51.7667L134.438,51.7667L134.438,55.2706L126.177,55.2706L126.177,58.6573L135.341,58.6573L135.341,62.5479L120.856,62.5479L120.856,45.3682Z" fill="#FFFFFF"/>
<path d="M168.974,54.4385L175.911,54.4385L175.911,58.1299L168.974,58.1299L168.974,54.4385Z" fill="#FFFFFF"/>
<path d="M210.142,45.3682L217.126,45.3682L219.821,55.8213L222.505,45.3682L229.466,45.3682L229.466,62.5479L225.13,62.5479L225.13,49.4463L221.767,62.5479L217.841,62.5479L214.489,49.4463L214.489,62.5479L210.142,62.5479L210.142,45.3682Z" fill="#FFFFFF"/>
<path d="M244.184,53.9698C244.184,51.1651 244.966,48.9815 246.528,47.419C248.091,45.8565 250.267,45.0752 253.056,45.0752C255.915,45.0752 258.118,45.8428 259.665,47.378C261.212,48.9131 261.985,51.0635 261.985,53.8292C261.985,55.837 261.647,57.4834 260.972,58.7686C260.296,60.0538 259.319,61.0538 258.042,61.7686C256.765,62.4834 255.173,62.8409 253.267,62.8409C251.329,62.8409 249.725,62.5323 248.456,61.9151C247.186,61.2979 246.157,60.3213 245.368,58.9854C244.579,57.6495 244.184,55.9776 244.184,53.9698L244.184,53.9698ZM249.493,53.9932C249.493,55.7276 249.815,56.9737 250.46,57.7315C251.104,58.4893 251.981,58.8682 253.091,58.8682C254.231,58.8682 255.114,58.4971 255.739,57.7549C256.364,57.0127 256.677,55.6807 256.677,53.7588C256.677,52.1417 256.35,50.96 255.698,50.2139C255.046,49.4678 254.161,49.0948 253.044,49.0948C251.974,49.0948 251.114,49.4737 250.466,50.2315C249.817,50.9893 249.493,52.2432 249.493,53.9932L249.493,53.9932Z" fill="#FFFFFF"/>
<path d="M276.88,45.3682L281.837,45.3682L288.306,54.8721L288.306,45.3682L293.309,45.3682L293.309,62.5479L288.306,62.5479L281.872,53.1143L281.872,62.5479L276.88,62.5479L276.88,45.3682Z" fill="#FFFFFF"/>
<path d="M309.048,45.3682L314.368,45.3682L314.368,62.5479L309.048,62.5479L309.048,45.3682Z" fill="#FFFFFF"/>
<path d="M328.97,45.3682L345.106,45.3682L345.106,49.6104L339.692,49.6104L339.692,62.5479L334.384,62.5479L334.384,49.6104L328.97,49.6104L328.97,45.3682Z" fill="#FFFFFF"/>
<path d="M358.02,53.9698C358.02,51.1651 358.802,48.9815 360.364,47.419C361.927,45.8565 364.102,45.0752 366.892,45.0752C369.751,45.0752 371.954,45.8428 373.501,47.378C375.048,48.9131 375.821,51.0635 375.821,53.8292C375.821,55.837 375.483,57.4834 374.808,58.7686C374.132,60.0538 373.155,61.0538 371.878,61.7686C370.6,62.4834 369.009,62.8409 367.102,62.8409C365.165,62.8409 363.561,62.5323 362.292,61.9151C361.022,61.2979 359.993,60.3213 359.204,58.9854C358.415,57.6495 358.02,55.9776 358.02,53.9698L358.02,53.9698ZM363.329,53.9932C363.329,55.7276 363.651,56.9737 364.296,57.7315C364.94,58.4893 365.817,58.8682 366.927,58.8682C368.067,58.8682 368.95,58.4971 369.575,57.7549C370.2,57.0127 370.513,55.6807 370.513,53.7588C370.513,52.1417 370.186,50.96 369.534,50.2139C368.882,49.4678 367.997,49.0948 366.88,49.0948C365.809,49.0948 364.95,49.4737 364.302,50.2315C363.653,50.9893 363.329,52.2432 363.329,53.9932L363.329,53.9932Z" fill="#FFFFFF"/>
<path d="M390.751,62.5479L390.751,45.3682L399.599,45.3682C401.239,45.3682 402.493,45.5088 403.36,45.7901C404.227,46.0713 404.927,46.5928 405.458,47.3545C405.989,48.1163 406.255,49.044 406.255,50.1377C406.255,51.0909 406.052,51.9131 405.645,52.6045C405.239,53.2959 404.681,53.8565 403.97,54.2862C403.517,54.5596 402.895,54.7862 402.106,54.9659C402.739,55.1768 403.2,55.3877 403.489,55.5987C403.684,55.7393 403.968,56.0401 404.339,56.501C404.71,56.962 404.958,57.3174 405.083,57.5674L407.649,62.5479L401.649,62.5479L398.813,57.2979C398.454,56.6182 398.134,56.1768 397.852,55.9737C397.47,55.7081 397.036,55.5752 396.552,55.5752L396.083,55.5752L396.083,62.5479L390.751,62.5479ZM396.083,52.3292L398.321,52.3292C398.563,52.3292 399.032,52.251 399.727,52.0948C400.079,52.0245 400.366,51.8448 400.589,51.5557C400.811,51.2667 400.923,50.9346 400.923,50.5596C400.923,50.0049 400.747,49.5792 400.395,49.2823C400.044,48.9854 399.384,48.837 398.415,48.837L396.083,48.837L396.083,52.3292Z" fill="#FFFFFF"/>
</g>
<path d="M38.4,18.8747C28.362,18.8747 20.2247,27.012 20.2247,37.05C20.2247,47.088 28.362,55.2253 38.4,55.2253C48.438,55.2253 56.5753,47.088 56.5753,37.05C56.5753,27.012 48.438,18.8747 38.4,18.8747L38.4,18.8747ZM38.4,22.3925C46.5006,22.3925 53.0575,28.9481 53.0575,37.05C53.0575,45.1506 46.5019,51.7075 38.4,51.7075C30.2994,51.7075 23.7425,45.1519 23.7425,37.05C23.7425,28.9494 30.2981,22.3925 38.4,22.3925L38.4,22.3925ZM48.6752,31.9394L47.0236,30.2745C46.6816,29.9297 46.1247,29.9274 45.7799,30.2695L35.4206,40.5456L31.0386,36.128C30.6965,35.7832 30.1397,35.781 29.7949,36.123L28.1299,37.7746C27.7851,38.1166 27.7828,38.6735 28.1249,39.0184L34.778,45.7253C35.12,46.0701 35.6769,46.0724 36.0217,45.7303L48.6703,33.1832C49.015,32.8411 49.0172,32.2843 48.6752,31.9394L48.6752,31.9394Z" fill="#FFFFFF"/>
</g>
</svg>
